<?xml version="1.0" encoding="UTF-8" standalone="no" ?>
<!DOCTYPE svg PUBLIC "-//W3C//DTD SVG 1.1//EN" "http://www.w3.org/Graphics/SVG/1.1/DTD/svg11.dtd">
<svg xmlns="http://www.w3.org/2000/svg" xmlns:xlink="http://www.w3.org/1999/xlink" version="1.1" width="3840" height="3840" viewBox="0 0 1280 1280" xml:space="preserve">
<desc>Created with Fabric.js 5.3.0</desc>
<defs>
</defs>
<g transform="matrix(5.318627451 0 0 5.318627451 641.7639902676 517.8960157589)" id="02Zw57D7k_-qZ4BHvAEo2"  >
<path style="stroke: none; stroke-width: 1; stroke-dasharray: none; stroke-linecap: butt; stroke-dashoffset: 0; stroke-linejoin: miter; stroke-miterlimit: 4; fill: rgb(179,181,179); fill-rule: nonzero; opacity: 1;"  transform=" translate(0, 0)" d="M 20 0 L 40 40 L 0 40 L -40 40 L -20 0 L 0 -40 z" stroke-linecap="round" />
</g>
<g transform="matrix(1.1260531722 0 0 1.126875481 640.072219086 639.3735339626)" id="qo7j30ra8UUz-mTzItkjX"  >
<path style="stroke: rgb(0,0,0); stroke-width: 0; stroke-dasharray: none; stroke-linecap: butt; stroke-dashoffset: 0; stroke-linejoin: miter; stroke-miterlimit: 4; fill: rgb(10,147,150); fill-rule: nonzero; opacity: 1;"  transform=" translate(0, 0)" d="M 0 -568.29269 C 313.69756 -568.29269 568.29269 -313.69757 568.29269 0 C 568.29269 313.69756 313.69757 568.29269 0 568.29269 C -313.69756 568.29269 -568.29269 313.69757 -568.29269 0 C -568.29269 -313.69756 -313.69757 -568.29269 0 -568.29269 z" stroke-linecap="round" />
</g>
<g transform="matrix(1 0 0 1.0031659461 640 641.2897267741)" id="1eUWEBcGDHsFtELe9bqYW"  >
<path style="stroke: none; stroke-width: 0; stroke-dasharray: none; stroke-linecap: butt; stroke-dashoffset: 0; stroke-linejoin: miter; stroke-miterlimit: 4; fill: rgb(0,0,0); fill-opacity: 0; fill-rule: nonzero; opacity: 1;"  transform=" translate(0, 0)" d="M -640 -640 L 640 -640 L 640 640 L -640 640 z" stroke-linecap="round" />
</g>
<g transform="matrix(0.8847711207 -1.0178127449 1.0991200241 0.9554504602 559.0801626718 829.2790165159)" id="PvRN6GaVFXpnOlmz9lRpw"  >
<path style="stroke: rgb(255,255,255); stroke-width: 0; stroke-dasharray: none; stroke-linecap: butt; stroke-dashoffset: 0; stroke-linejoin: miter; stroke-miterlimit: 4; fill: rgb(0,18,25); fill-opacity: 0.76; fill-rule: nonzero; opacity: 1;"  transform=" translate(0.000006446, 0.00002)" d="M -303.99286 97.5386 C -306.56688 90.18918000000001 -309.16641 82.79232 -311.12477 76.41903 C -314.2354 66.29579000000001 -316.05445000000003 58.83267000000001 -316.05445000000003 58.83267000000001 C -316.05445000000003 58.83267000000001 -317.70063000000005 52.59053000000001 -318.93529 47.11312000000001 C -320.16995000000003 41.635720000000006 -320.99309 36.92305000000001 -320.99309 36.92305000000001 L -322.87725 26.939440000000012 C -322.87725 26.939440000000012 -324.10202 19.31241000000001 -324.56555000000003 16.628600000000013 C -326.07232000000005 7.904500000000013 -327.50862 -7.902349999999988 -327.50862 -7.902349999999988 L -328.61018 -23.123539999999988 L -328.87213 -34.368729999999985 C -328.87213 -34.368729999999985 -328.95549000000005 -44.16249999999999 -328.95549000000005 -44.16249999999999 C -328.97499000000005 -70.09200999999999 -326.22197000000006 -96.43923999999998 -321.38146000000006 -121.46291 C -320.32819000000006 -126.90795999999999 -319.12039000000004 -132.33517 -317.88324000000006 -137.63152 C -316.15878000000004 -145.01405 -314.23989000000006 -152.20838 -312.2005300000001 -159.21823999999998 C -309.59616000000005 -168.17022999999998 -306.9201800000001 -176.9544 -303.85931000000005 -185.08070999999998 C -290.1610600000001 -221.44829 -273.39441000000005 -249.70227 -273.39441000000005 -249.70227 C -273.39441000000005 -249.70227 -113.57794000000004 -237.94489 -107.57842000000005 -237.94038 L -8.925310000000053 -232.95011 L 328.95557999999994 -190.613 L 328.6214299999999 124.33553 L 166.22567999999993 109.62121 L 86.87569999999992 249.70223 L -59.66633000000009 243.70152 C -94.3504100000001 242.30745 -173.66336000000007 232.22615 -229.61356000000006 225.13761 L -229.61356000000006 225.13761 C -230.12333000000007 225.07301999999999 -230.58321000000007 224.82021 -230.88853000000006 224.4367 L -241.60309000000007 210.97803 L -252.22563000000008 196.45668999999998 L -257.3528600000001 188.98230999999998 C -257.3528600000001 188.98230999999998 -260.6113900000001 184.14262 -265.2278600000001 176.88287 C -268.4771600000001 171.77309 -272.4844500000001 165.59808999999998 -276.1312300000001 158.48689 C -278.0875300000001 154.6721 -282.4053400000001 146.82369999999997 -282.4053400000001 146.82369999999997 C -282.4053400000001 146.82369999999997 -288.21492000000006 135.37399999999997 -290.7878300000001 129.73370999999997 C -293.4717300000001 123.85009999999997 -299.3169900000001 110.88930999999997 -303.9928700000001 97.53859999999997 z" stroke-linecap="round" />
</g>
<g transform="matrix(6.3322368421 0 0 6.3322368421 641.7639902676 676.5710243475)" id="U-ND2fjePb8QqmuhpNRA4"  >
<path style="stroke: rgb(255,255,255); stroke-opacity: 0; stroke-width: 0; stroke-dasharray: none; stroke-linecap: butt; stroke-dashoffset: 0; stroke-linejoin: miter; stroke-miterlimit: 4; fill: rgb(172,255,227); fill-rule: nonzero; opacity: 1;"  transform=" translate(0, -0.000005)" d="M -42.35346 -9.94143 L -0.2785699999999949 -47.60792000000001 L 42.353460000000005 -9.941430000000004 L 42.353460000000005 47.607929999999996 L -42.35345999999999 47.607929999999996 z" stroke-linecap="round" />
</g>
<g transform="matrix(-0.1994456513 0 0 2.097419732 829.4370613062 864.7614420609)" id="0rrEGP0awx54RQOzC8ixf"  >
<path style="stroke: rgb(255,255,255); stroke-width: 0; stroke-dasharray: none; stroke-linecap: butt; stroke-dashoffset: 0; stroke-linejoin: miter; stroke-miterlimit: 4; fill: rgb(2,48,55); fill-rule: nonzero; opacity: 1;"  transform=" translate(-0.000005, -0.000005)" d="M -58.33333 -58.33333 L 58.33334 -58.33333 L 58.33334 58.33334 L -58.33333 58.33334 z" stroke-linecap="round" />
</g>
<g transform="matrix(-0.1994456513 0 0 0.8232484636 698.4045070371 935.2603528981)" id="ri_3XK5-IYK2INFE1B7sU"  >
<path style="stroke: rgb(255,255,255); stroke-width: 0; stroke-dasharray: none; stroke-linecap: butt; stroke-dashoffset: 0; stroke-linejoin: miter; stroke-miterlimit: 4; fill: rgb(2,48,55); fill-rule: nonzero; opacity: 1;"  transform=" translate(-0.000005, -0.000005)" d="M -58.33333 -58.33333 L 58.33334 -58.33333 L 58.33334 58.33334 L -58.33333 58.33334 z" stroke-linecap="round" />
</g>
<g transform="matrix(-0.1994456513 0 0 1.4552997185 522.9918895876 902.2184465044)" id="k1-pWSvi5ptsrD_dmGIPU"  >
<path style="stroke: rgb(255,255,255); stroke-width: 0; stroke-dasharray: none; stroke-linecap: butt; stroke-dashoffset: 0; stroke-linejoin: miter; stroke-miterlimit: 4; fill: rgb(2,48,55); fill-rule: nonzero; opacity: 1;"  transform=" translate(-0.000005, -0.000005)" d="M -58.33333 -58.33333 L 58.33334 -58.33333 L 58.33334 58.33334 L -58.33333 58.33334 z" stroke-linecap="round" />
</g>
<g transform="matrix(-0.1592843795 -0.1200293893 -0.5081649823 0.6743577082 550.2921059759 784.1210739716)" id="7h3Hmm6y4BVktHyv3crTd"  >
<path style="stroke: rgb(255,255,255); stroke-width: 0; stroke-dasharray: none; stroke-linecap: butt; stroke-dashoffset: 0; stroke-linejoin: miter; stroke-miterlimit: 4; fill: rgb(2,48,55); fill-rule: nonzero; opacity: 1;"  transform=" translate(-0.000005, -0.000005)" d="M -58.33333 -58.33333 L 58.33334 -58.33333 L 58.33334 58.33334 L -58.33333 58.33334 z" stroke-linecap="round" />
</g>
<g transform="matrix(-0.1994456513 0 0 0.8833804695 577.5923223641 700.2482901127)" id="a-r2bPHLu8DVOvW0iFHNr"  >
<path style="stroke: rgb(179,181,179); stroke-width: 0; stroke-dasharray: none; stroke-linecap: butt; stroke-dashoffset: 0; stroke-linejoin: miter; stroke-miterlimit: 4; fill: rgb(2,48,55); fill-rule: nonzero; opacity: 1;"  transform=" translate(-0.000005, -0.000005)" d="M -58.33333 -58.33333 L 58.33334 -58.33333 L 58.33334 58.33334 L -58.33333 58.33334 z" stroke-linecap="round" />
</g>
<g transform="matrix(1.0139920664 0 0 1.0407751417 641.7639902676 452.5815314484)" id="e9yTHknuMfW_w8uiKUK4M"  >
<path style="stroke: rgb(148,210,189); stroke-width: 1; stroke-dasharray: none; stroke-linecap: butt; stroke-dashoffset: 0; stroke-linejoin: miter; stroke-miterlimit: 4; fill: rgb(172,255,227); fill-rule: nonzero; opacity: 1;"  transform=" translate(-0.000005, -0.000005)" d="M -293.15789 154.21053 L -339.47368 154.21053 L 0.11671000000001186 -154.21051999999997 L 339.47369000000003 154.21053 L 292.81371 154.21053 L 0.11671000000001186 -105.78947 z" stroke-linecap="round" />
</g>
<g transform="matrix(0.7236884834 0 0 0.7236884834 829.4370613062 708.3340521123)" id="m6w8tHR4sJZCiAJUqnZ6R"  >
<path style="stroke: rgb(2,48,55); stroke-width: 26; stroke-dasharray: none; stroke-linecap: butt; stroke-dashoffset: 0; stroke-linejoin: miter; stroke-miterlimit: 4; fill: none; fill-rule: nonzero; opacity: 1;"  transform=" translate(0, 0)" d="M 0 -50 C 27.6 -50 50 -27.6 50 0 C 50 27.6 27.6 50 0 50 C -27.6 50 -50 27.6 -50 0 C -50 -27.6 -27.6 -50 0 -50 z" stroke-linecap="round" />
</g>
<g transform="matrix(0.7236884834 0 0 0.7236884834 698.4045070371 856.3711911507)" id="rMcGZRp2eJ8CV3Po_SU8o"  >
<path style="stroke: rgb(2,48,55); stroke-width: 26; stroke-dasharray: none; stroke-linecap: butt; stroke-dashoffset: 0; stroke-linejoin: miter; stroke-miterlimit: 4; fill: none; fill-rule: nonzero; opacity: 1;"  transform=" translate(0, 0)" d="M 0 -50 C 27.6 -50 50 -27.6 50 0 C 50 27.6 27.6 50 0 50 C -27.6 50 -50 27.6 -50 0 C -50 -27.6 -27.6 -50 0 -50 z" stroke-linecap="round" />
</g>
<g transform="matrix(0.7236884834 0 0 0.7236884834 471.9519529571 685.5923744542)" id="RJQ5ATWUkEskTIq6AkETD"  >
<path style="stroke: rgb(2,48,55); stroke-width: 26; stroke-dasharray: none; stroke-linecap: butt; stroke-dashoffset: 0; stroke-linejoin: miter; stroke-miterlimit: 4; fill: none; fill-rule: nonzero; opacity: 1;"  transform=" translate(0, 0)" d="M 0 -50 C 27.6 -50 50 -27.6 50 0 C 50 27.6 27.6 50 0 50 C -27.6 50 -50 27.6 -50 0 C -50 -27.6 -27.6 -50 0 -50 z" stroke-linecap="round" />
</g>
<g transform="matrix(0.7236884834 0 0 0.7236884834 577.5923223641 608.5368267156)" id="EtlXtbTQnIJfsXFUO95qt"  >
<path style="stroke: rgb(2,48,55); stroke-width: 26; stroke-dasharray: none; stroke-linecap: butt; stroke-dashoffset: 0; stroke-linejoin: miter; stroke-miterlimit: 4; fill: none; fill-rule: nonzero; opacity: 1;"  transform=" translate(0, 0)" d="M 0 -50 C 27.6 -50 50 -27.6 50 0 C 50 27.6 27.6 50 0 50 C -27.6 50 -50 27.6 -50 0 C -50 -27.6 -27.6 -50 0 -50 z" stroke-linecap="round" />
</g>
<g transform="matrix(-0.1851299746 -0.0032314557 0.0113592482 -0.7927576661 471.4141262932 581.3572935175)" id="BSnYLaIlmNP_II94x27VC"  >
<path style="stroke: rgb(255,255,255); stroke-width: 0; stroke-dasharray: none; stroke-linecap: butt; stroke-dashoffset: 0; stroke-linejoin: miter; stroke-miterlimit: 4; fill: rgb(2,48,55); fill-rule: nonzero; opacity: 1;"  transform=" translate(0, 0)" d="M -65.61961 -90.65999 L 56.56633000000001 -91.52843 L 65.61961000000001 63.40981000000001 L -54.974059999999994 91.52843000000001 z" stroke-linecap="round" />
</g>
</svg>