<?xml version="1.0" encoding="utf-8"?>
<!-- Generator: Adobe Illustrator 28.0.0, SVG Export Plug-In . SVG Version: 6.00 Build 0)  -->
<svg version="1.1" id="Слой_1" xmlns="http://www.w3.org/2000/svg" xmlns:xlink="http://www.w3.org/1999/xlink" x="0px" y="0px"
	 viewBox="0 0 1211.3 4720.8" style="enable-background:new 0 0 1211.3 4720.8;" xml:space="preserve">
<style type="text/css">
	.st0{fill:#B3B5B3;}
	.st1{fill:#0A9396;}
	.st2{fill-opacity:0;}
	.st3{fill:#001219;fill-opacity:0.76;}
	.st4{fill:#ACFFE3;}
	.st5{fill:#023037;}
	.st6{fill:#ACFFE3;stroke:#94D2BD;}
	.st7{fill:none;stroke:#023037;stroke-width:56.4477;stroke-miterlimit:8.6843;}
</style>
<g id="_x30_2Zw57D7k_x5F_-qZ4BHvAEo2" transform="matrix(5.318627451 0 0 5.318627451 641.7639902676 517.8960157589)">
	<path class="st0" d="M322.8,195.3l60,120h-120h-120l60-120l60-120L322.8,195.3z"/>
</g>
<g id="qo7j30ra8UUz-mTzItkjX" transform="matrix(1.1260531722 0 0 1.126875481 640.072219086 639.3735339626)">
	<path class="st1" d="M1238.4-567.4c941.1,0,1704.9,763.8,1704.9,1704.9s-763.8,1704.9-1704.9,1704.9S-466.5,2078.6-466.5,1137.5
		S297.3-567.4,1238.4-567.4z"/>
</g>
<g id="_x31_eUWEBcGDHsFtELe9bqYW" transform="matrix(1 0 0 1.0031659461 640 641.2897267741)">
	<path class="st2" d="M-525.7-639.3h3840V3191h-3840V-639.3z"/>
</g>
<g id="PvRN6GaVFXpnOlmz9lRpw" transform="matrix(0.8847711207 -1.0178127449 1.0991200241 0.9554504602 559.0801626718 829.2790165159)">
	<path class="st3" d="M-1316.9,1284.1"/>
	<path class="st3" d="M-1312.8,1363.5"/>
	<path class="st3" d="M-1298.9,1468.1"/>
	<path class="st3" d="M-1287.1,1528.6"/>
	<path class="st3" d="M-1242.3,1679.9"/>
	<path class="st3" d="M-1177.5,1827.7"/>
	<path class="st3" d="M-1102.4,1954.2"/>
	<path class="st3" d="M-1023,2060.5"/>
	<path class="st3" d="M-1379.8,602c0,0,809.8,76.5,827.8,76.5l204,10.3L690.7,791l-35.3,966.8l-487-41.7l-238.1,420.2l-1053.1-68.6
		l-487.6-40.2"/>
</g>
<g id="U-ND2fjePb8QqmuhpNRA4" transform="matrix(6.3322368421 0 0 6.3322368421 641.7639902676 676.5710243475)">
	<path class="st4" d="M93.7,184.4l126.2-113l127.9,113V357H93.7V184.4z"/>
</g>
<g id="_x30_rrEGP0awx54RQOzC8ixf" transform="matrix(-0.1994456513 0 0 2.097419732 829.4370613062 864.7614420609)">
	<path class="st5" d="M-9065.7,651.1h350v350h-350V651.1z"/>
</g>
<g id="ri_3XK5-IYK2INFE1B7sU" transform="matrix(-0.1994456513 0 0 0.8232484636 698.4045070371 935.2603528981)">
	<path class="st5" d="M-7751.7,2100.8h350v350h-350V2100.8z"/>
</g>
<g id="k1-pWSvi5ptsrD_dmGIPU" transform="matrix(-0.1994456513 0 0 1.4552997185 522.9918895876 902.2184465044)">
	<path class="st5" d="M-5992.7,1067h350v350h-350V1067z"/>
</g>
<g id="_x37_h3Hmm6y4BVktHyv3crTd" transform="matrix(-0.1592843795 -0.1200293893 -0.5081649823 0.6743577082 550.2921059759 784.1210739716)">
	<path class="st5" d="M-9781.2,445.3l350,0v350l-350,0V445.3z"/>
</g>
<g id="a-r2bPHLu8DVOvW0iFHNr" transform="matrix(-0.1994456513 0 0 0.8833804695 577.5923223641 700.2482901127)">
	<path class="st5" d="M-6540.2,1413.9h350v350h-350V1413.9z"/>
</g>
<g id="e9yTHknuMfW_w8uiKUK4M" transform="matrix(1.0139920664 0 0 1.0407751417 641.7639902676 452.5815314484)">
	<path class="st6" d="M499.1,1335.3H360.2L1378.9,410L2397,1335.3h-140l-878.1-780L499.1,1335.3z"/>
</g>
<g id="m6w8tHR4sJZCiAJUqnZ6R" transform="matrix(0.7236884834 0 0 0.7236884834 829.4370613062 708.3340521123)">
	<path class="st7" d="M2450.2,1811.8c82.8,0,150,67.2,150,150s-67.2,150-150,150s-150-67.2-150-150S2367.4,1811.8,2450.2,1811.8z"/>
</g>
<g id="rMcGZRp2eJ8CV3Po_SU8o" transform="matrix(0.7236884834 0 0 0.7236884834 698.4045070371 856.3711911507)">
	<path class="st7" d="M2088.1,2220.9c82.8,0,150,67.2,150,150s-67.2,150-150,150s-150-67.2-150-150S2005.3,2220.9,2088.1,2220.9z"/>
</g>
<g id="RJQ5ATWUkEskTIq6AkETD" transform="matrix(0.7236884834 0 0 0.7236884834 471.9519529571 685.5923744542)">
	<path class="st7" d="M1462.3,1749c82.8,0,150,67.2,150,150s-67.2,150-150,150s-150-67.2-150-150S1379.5,1749,1462.3,1749z"/>
</g>
<g id="EtlXtbTQnIJfsXFUO95qt" transform="matrix(0.7236884834 0 0 0.7236884834 577.5923223641 608.5368267156)">
	<path class="st7" d="M1754.2,1536c82.8,0,150,67.2,150,150c0,82.8-67.2,150-150,150s-150-67.2-150-150
		C1604.2,1603.2,1671.4,1536,1754.2,1536z"/>
</g>
<g id="BSnYLaIlmNP_II94x27VC" transform="matrix(-0.1851299746 -0.0032314557 0.0113592482 -0.7927576661 471.4141262932 581.3572935175)">
	<path class="st5" d="M-5996-1718.9l366.6-2.6l27.2,464.8l-361.8,84.4L-5996-1718.9z"/>
</g>
</svg>
