<?xml version="1.0" encoding="UTF-8"?>
<svg id="_Слой_4" data-name="Слой 4" xmlns="http://www.w3.org/2000/svg" viewBox="0 0 6000 6000">
  <defs>
    <style>
      .cls-1 {
        fill: #acffe3;
      }

      .cls-1, .cls-2, .cls-3, .cls-4 {
        stroke-width: 0px;
      }

      .cls-2 {
        fill: none;
      }

      .cls-3 {
        fill: #0a9396;
      }

      .cls-4 {
        fill: rgba(0, 18, 25, .76);
      }
    </style>
  </defs>
  <rect id="background" class="cls-3" y="0" width="6000" height="6000"/>
  <g>
    <polygon class="cls-2" points="0 0 0 4767.68 1980.19 2920.5 1978.62 2920.5 3011.5 1957.5 4043.96 2920.5 4042.46 2920.5 3816 3131.82 3816 4016 1698.33 6000 6000 6000 6000 0 0 0"/>
    <path class="cls-4" d="m3609,4016v-675c58.99-15.48,102.5-69.16,102.5-133,0-75.94-61.56-137.5-137.5-137.5s-137.5,61.56-137.5,137.5c0,63.84,43.51,117.52,102.5,133v675h-323v-234c58.99-15.48,102.5-69.16,102.5-133,0-75.94-61.56-137.5-137.5-137.5s-137.5,61.56-137.5,137.5c0,63.84,43.51,117.52,102.5,133v234h-456v-461.88l163.62-217.12h.38v-297c58.99-15.48,102.5-69.16,102.5-133,0-75.94-61.56-137.5-137.5-137.5s-137.5,61.56-137.5,137.5c0,63.84,43.51,117.52,102.5,133v273.39l-163.93,217.54.09.07h-.17v485h-413v-1093.25l259.24-232.1-.22,317.61c-58.49,15.81-101.52,69.24-101.52,132.73,0,75.94,61.56,137.5,137.5,137.5s137.5-61.56,137.5-137.5c0-65.02-45.13-119.49-105.77-133.81l.26-377.19,472.22-422.79,809.79,715.54v209.07l226.46-211.32h-140.44l-890.38-811.8-892.13,811.8h-139.32L0,4767.68v1232.32h1698.33l2117.67-1984h-207Zm-869.5-1108.35c0-44.27,35.75-80.15,79.85-80.15s79.85,35.89,79.85,80.15-35.75,80.15-79.85,80.15-79.85-35.89-79.85-80.15Zm-157.31,234c0,44.27-35.75,80.15-79.85,80.15s-79.85-35.89-79.85-80.15,35.75-80.15,79.85-80.15,79.85,35.89,79.85,80.15Zm519.31,508c0-44.27,35.75-80.15,79.85-80.15s79.85,35.89,79.85,80.15-35.75,80.15-79.85,80.15-79.85-35.89-79.85-80.15Zm393-441c0-44.27,35.75-80.15,79.85-80.15s79.85,35.89,79.85,80.15-35.75,80.15-79.85,80.15-79.85-35.89-79.85-80.15Z"/>
    <ellipse class="cls-1" cx="3574.35" cy="3208.65" rx="79.85" ry="80.15"/>
    <ellipse class="cls-1" cx="3181.35" cy="3649.65" rx="79.85" ry="80.15"/>
    <ellipse class="cls-1" cx="2502.35" cy="3141.65" rx="79.85" ry="80.15"/>
    <path class="cls-1" d="m3006.21,2207.21l-472.22,422.79-.26,377.19c60.64,14.33,105.77,68.8,105.77,133.81,0,75.94-61.56,137.5-137.5,137.5s-137.5-61.56-137.5-137.5c0-63.49,43.04-116.92,101.52-132.73l.22-317.61-259.24,232.1v1093.25h413v-485h.17l-.09-.07,163.93-217.54v-273.39c-58.99-15.48-102.5-69.16-102.5-133,0-75.94,61.56-137.5,137.5-137.5s137.5,61.56,137.5,137.5c0,63.84-43.51,117.52-102.5,133v297h-.38l-163.62,217.12v461.88h456v-234c-58.99-15.48-102.5-69.16-102.5-133,0-75.94,61.56-137.5,137.5-137.5s137.5,61.56,137.5,137.5c0,63.84-43.51,117.52-102.5,133v234h323v-675c-58.99-15.48-102.5-69.16-102.5-133,0-75.94,61.56-137.5,137.5-137.5s137.5,61.56,137.5,137.5c0,63.84-43.51,117.52-102.5,133v675h207v-1093.25l-809.79-715.54Z"/>
    <ellipse class="cls-1" cx="2819.35" cy="2907.65" rx="79.85" ry="80.15"/>
    <polygon class="cls-1" points="3011.65 2108.7 3902.02 2920.5 4042.46 2920.5 4043.96 2920.5 3011.5 1957.5 1978.62 2920.5 1980.19 2920.5 2119.51 2920.5 3011.65 2108.7"/>
  </g>
</svg>