<?xml version="1.0" encoding="UTF-8"?>
<svg xmlns="http://www.w3.org/2000/svg" xmlns:xlink="http://www.w3.org/1999/xlink" viewBox="0 0 10000 3840">
  <defs>
    <style>
      .cls-1, .cls-2, .cls-3, .cls-4, .cls-5 {
        stroke-width: 0px;
      }

      .cls-1, .cls-6 {
        fill: #acffe3;
      }

      .cls-7, .cls-8 {
        isolation: isolate;
      }

      .cls-3, .cls-9 {
        fill: none;
      }

      .cls-10 {
        filter: url(#drop-shadow-1);
      }

      .cls-9 {
        stroke: #000;
        stroke-miterlimit: 16.57;
        stroke-width: 48px;
      }

      .cls-4 {
        fill: #0a9396;
      }

      .cls-8 {
        font-family: Goldman-Regular, Goldman;
        font-size: 526.87px;
      }

      .cls-6 {
        stroke: #acffe3;
        stroke-miterlimit: 10;
      }

      .cls-5 {
        fill: rgba(0, 18, 25, .76);
      }
    </style>
    <filter id="drop-shadow-1" filterUnits="userSpaceOnUse">
      <feOffset dx="25" dy="25"/>
      <feGaussianBlur result="blur" stdDeviation="0"/>
      <feFlood flood-color="#797777" flood-opacity="1"/>
      <feComposite in2="blur" operator="in"/>
      <feComposite in="SourceGraphic"/>
    </filter>
  </defs>
  <g id="_Слой_4" data-name="Слой 4">
    <g>
      <polygon class="cls-3" points="9828.5 -890 9828.5 4418.81 12033.44 2361.98 12031.69 2361.98 13181.81 1289.68 14331.45 2361.98 14329.78 2361.98 14077.62 2597.28 14077.62 3581.82 11719.59 5791 16509.5 5791 16509.5 -890 9828.5 -890"/>
      <path class="cls-5" d="m13847.12,3581.82v-751.61c65.68-17.24,114.13-77,114.13-148.09,0-84.56-68.55-153.11-153.11-153.11s-153.11,68.55-153.11,153.11c0,71.09,48.45,130.86,114.13,148.09v751.61h-359.66v-260.56c65.68-17.24,114.13-77,114.13-148.09,0-84.56-68.55-153.11-153.11-153.11s-153.11,68.55-153.11,153.11c0,71.09,48.45,130.86,114.13,148.09v260.56h-507.76v-514.3l182.19-241.77h.43v-330.71c65.68-17.24,114.13-77,114.13-148.09,0-84.56-68.55-153.11-153.11-153.11s-153.11,68.55-153.11,153.11c0,71.09,48.45,130.86,114.13,148.09v304.42l-182.53,242.23.1.08h-.19v540.05h-459.88v-1217.33l288.66-258.44-.24,353.66c-65.13,17.61-113.05,77.1-113.05,147.8,0,84.56,68.55,153.11,153.11,153.11s153.11-68.55,153.11-153.11c0-72.4-50.25-133.05-117.78-149l.29-420,525.82-470.77,901.7,796.75v232.8l252.17-235.31h-156.38l-991.44-903.94-993.39,903.94h-155.13l-2204.94,2056.83v1372.19h1891.09l2358.02-2209.18h-230.49Zm-968.19-1234.15c0-49.29,39.81-89.25,88.91-89.25s88.91,39.96,88.91,89.25-39.81,89.25-88.91,89.25-88.91-39.96-88.91-89.25Zm-175.16,260.56c0,49.29-39.81,89.25-88.91,89.25s-88.91-39.96-88.91-89.25,39.81-89.25,88.91-89.25,88.91,39.96,88.91,89.25Zm578.25,565.66c0-49.29,39.81-89.25,88.91-89.25s88.91,39.96,88.91,89.25-39.81,89.25-88.91,89.25-88.91-39.96-88.91-89.25Zm437.61-491.05c0-49.29,39.81-89.25,88.91-89.25s88.91,39.96,88.91,89.25-39.81,89.25-88.91,89.25-88.91-39.96-88.91-89.25Z"/>
    </g>
  </g>
  <g id="com-mint">
    <g>
      <g id="background">
        <circle class="cls-4" cx="1932" cy="1920.5" r="1910"/>
      </g>
      <g id="logo">
        <g id="home">
          <g id="shadow">
            <path class="cls-3" d="m1931.5,10C876.64,10,21.5,865.14,21.5,1920c0,226.93,39.58,444.61,112.2,646.52L1943.5,878l1031,962-802,748,575,348-949.33,889.41c44.05,3.04,88.51,4.59,133.33,4.59,1054.86,0,1910-855.14,1910-1910S2986.36,10,1931.5,10Z"/>
            <path class="cls-5" d="m2645.5,2147l329-307-1031-962L133.7,2566.52c250.62,696.8,894.83,1205.82,1664.47,1258.89l949.33-889.41-102-789Z"/>
          </g>
          <g>
            <ellipse class="cls-1" cx="2505.85" cy="2128.65" rx="79.85" ry="80.15"/>
            <ellipse class="cls-1" cx="2112.85" cy="2569.65" rx="79.85" ry="80.15"/>
            <ellipse class="cls-1" cx="1433.85" cy="2061.65" rx="79.85" ry="80.15"/>
            <path class="cls-1" d="m1938.22,1127.71l-472.22,422.79-.26,376.61c63.32,14.96,109.74,73.66,105.57,142.45-4.22,69.67-60.75,125.47-130.47,128.85-79.1,3.84-144.43-59.16-144.43-137.41,0-63.53,43.06-116.99,101.58-132.81l.22-317.53-259.22,232.08v1093.76h413v-485h.17l-.09-.07,163.93-217.54v-273.39c-59.17-15.53-102.77-69.49-102.5-133.59.32-75.01,61.5-136.38,136.51-136.91,76.4-.54,138.49,61.23,138.49,137.5,0,63.84-43.51,117.52-102.5,133v297h-.38l-163.62,217.12v461.88h456v-234c-59.17-15.53-102.77-69.49-102.5-133.59.32-75.01,61.5-136.38,136.51-136.91,76.4-.54,138.49,61.23,138.49,137.5,0,63.84-43.51,117.52-102.5,133v234h323v-675c-59.17-15.53-102.77-69.49-102.5-133.59.32-75.01,61.5-136.38,136.51-136.91,76.4-.54,138.49,61.23,138.49,137.5,0,63.84-43.51,117.52-102.5,133v675h207v-1093.25l-809.78-715.54Z"/>
            <ellipse class="cls-1" cx="1750.85" cy="1827.65" rx="79.85" ry="80.15"/>
          </g>
          <g id="roof">
            <path class="cls-6" d="m1051.01,1841h-140.89l1032.88-963,1032.46,963h-141.94l-890.38-811.8-892.13,811.8Z"/>
          </g>
        </g>
      </g>
      <g>
        <g id="Ovj1Bk3Rkj9D8jkbx2zeq">
          <rect class="cls-4" x="3904" y="1262.5" width="6075" height="1370" rx="315.12" ry="315.12"/>
        </g>
        <g id="SKt06yS5S-EHQ1oLOTpuP" class="cls-10">
          <g class="cls-7">
            <text class="cls-8" transform="translate(4141.25 2126.35)"><tspan x="0" y="0">Smart Home System </tspan></text>
          </g>
          <g class="cls-7">
            <text class="cls-8" transform="translate(4141.25 2126.35)"><tspan x="0" y="0">Smart Home System </tspan></text>
          </g>
        </g>
        <g id="lHTGZ9pTBI3SsJnHQA8KA">
          <path class="cls-9" d="m5675.54,1462.66c71.95,0,130.35,58.39,130.35,130.35s-58.39,130.35-130.35,130.35-130.35-58.39-130.35-130.35,58.39-130.35,130.35-130.35Z"/>
        </g>
        <g id="nyYYuTjAu-bm43d7gdh2u">
          <path class="cls-9" d="m8941.58,1438.71c71.95,0,130.35,58.39,130.35,130.35s-58.39,130.35-130.35,130.35-130.35-58.39-130.35-130.35,58.39-130.35,130.35-130.35Z"/>
        </g>
        <g id="hPTcxfxU6grSgSnw4Lib2">
          <path class="cls-9" d="m7760.61,2268.12c71.95,0,130.35,58.39,130.35,130.35s-58.39,130.35-130.35,130.35-130.35-58.39-130.35-130.35,58.39-130.35,130.35-130.35Z"/>
        </g>
        <g>
          <path class="cls-3" d="m9072,1592.5v-48h904.13c-22.41-159.93-159.74-283-325.84-283h-5418.55c-175.69,0-319.17,138.17-328.15,312h1654.41v48h-1655s0,682.4,0,682.4c0,181.48,147.12,328.6,328.6,328.6h4999.4v-206h-1355v-48h1354.1s0,0,0,0h47.9v47.74h0v205.26h371.4c181.48,0,328.6-147.12,328.6-328.6v-710.4h-906Z"/>
          <rect class="cls-2" x="7877" y="2378.5" width="1354" height="48"/>
          <path class="cls-2" d="m9072,1592.5h906s0-1.9,0-1.9c0-15.65-1.11-31.04-3.22-46.1h-902.78s0,48,0,48Z"/>
          <path class="cls-2" d="m5558,1573.5h-1654.55c-.3,5.73-.45,11.5-.45,17.3v30.7h1655s0-48,0-48Z"/>
          <polygon class="cls-2" points="9278 2378.5 9278 2378.5 9230 2378.5 9230 2378.5 9230 2426.42 9230 2632.5 9278 2632.5 9278 2426.42 9278 2378.5"/>
        </g>
      </g>
    </g>
  </g>
</svg>