<?xml version="1.0" encoding="UTF-8"?><svg id="logo-green" xmlns="http://www.w3.org/2000/svg" viewBox="0 0 3840 3840"><defs><style>.cls-1,.cls-2,.cls-3,.cls-4{stroke-width:0px;}.cls-1,.cls-5{fill:#acffe3;}.cls-2{fill:rgba(0,18,25,.76);}.cls-3{fill:none;}.cls-4{fill:#abbe40;}.cls-5{stroke:#acffe3;stroke-miterlimit:10;}</style></defs><g id="background"><circle class="cls-4" cx="1920" cy="1920" r="1910"/></g><g id="logo"><g id="home"><g id="shadow"><path class="cls-3" d="m1920,10C865.14,10,10,865.14,10,1920c0,226.93,39.58,444.61,112.2,646.52L1932,878l1031,962-802,748,575,348-949.33,889.41c44.05,3.04,88.51,4.59,133.33,4.59,1054.86,0,1910-855.14,1910-1910S2974.86,10,1920,10Z"/><path class="cls-2" d="m2634,2147l329-307-1031-962L122.2,2566.52c250.62,696.8,894.83,1205.82,1664.47,1258.89l949.33-889.41-102-789Z"/></g><ellipse class="cls-1" cx="2494.35" cy="2128.65" rx="79.85" ry="80.15"/><ellipse class="cls-1" cx="2101.35" cy="2569.65" rx="79.85" ry="80.15"/><ellipse class="cls-1" cx="1422.35" cy="2061.65" rx="79.85" ry="80.15"/><path class="cls-1" d="m1926.21,1127.21l-472.22,422.79-.26,377.19c60.64,14.32,105.77,68.8,105.77,133.81,0,75.94-61.56,137.5-137.5,137.5s-137.5-61.56-137.5-137.5c0-63.49,43.04-116.92,101.52-132.73l.22-317.61-259.24,232.1v1093.25h413v-485h.17l-.09-.07,163.93-217.54v-273.39c-58.99-15.48-102.5-69.16-102.5-133,0-75.94,61.56-137.5,137.5-137.5s137.5,61.56,137.5,137.5c0,63.84-43.51,117.52-102.5,133v297h-.38l-163.62,217.12v461.88h456v-234c-58.99-15.48-102.5-69.16-102.5-133,0-75.94,61.56-137.5,137.5-137.5s137.5,61.56,137.5,137.5c0,63.84-43.51,117.52-102.5,133v234h323v-675c-58.99-15.48-102.5-69.16-102.5-133,0-75.94,61.56-137.5,137.5-137.5s137.5,61.56,137.5,137.5c0,63.84-43.51,117.52-102.5,133v675h207v-1093.25l-809.79-715.54Z"/><ellipse class="cls-1" cx="1739.35" cy="1827.65" rx="79.85" ry="80.15"/><g id="roof"><path class="cls-5" d="m1039.51,1840.5h-140.89l1032.88-963,1032.46,963h-141.94l-890.38-811.8-892.13,811.8Z"/></g></g></g></svg>