<?xml version="1.0" encoding="UTF-8"?><svg id="_Слой_7" xmlns="http://www.w3.org/2000/svg" xmlns:xlink="http://www.w3.org/1999/xlink" viewBox="0 0 3840 864"><defs><style>.cls-1{font-family:Goldman-Regular, Goldman;font-size:330px;}.cls-1,.cls-2{isolation:isolate;}.cls-3,.cls-4,.cls-5{stroke-width:0px;}.cls-4,.cls-6{fill:none;}.cls-7{filter:url(#drop-shadow-1);}.cls-5{fill:#94d2bd;}.cls-6{stroke:#000;stroke-miterlimit:16.57;stroke-width:30px;}</style><filter id="drop-shadow-1" filterUnits="userSpaceOnUse"><feOffset dx="25" dy="25"/><feGaussianBlur result="blur" stdDeviation="0"/><feFlood flood-color="#797777" flood-opacity="1"/><feComposite in2="blur" operator="in"/><feComposite in="SourceGraphic"/></filter></defs><g id="Ovj1Bk3Rkj9D8jkbx2zeq"><rect class="cls-5" x="17.5" y="3" width="3805" height="858" rx="205.81" ry="205.81"/></g><g id="SKt06yS5S-EHQ1oLOTpuP" class="cls-7"><g class="cls-2"><text class="cls-1" transform="translate(166.41 544.29)"><tspan x="0" y="0">Smart Home System </tspan></text></g><g class="cls-2"><text class="cls-1" transform="translate(166.41 544.29)"><tspan x="0" y="0">Smart Home System </tspan></text></g></g><g id="lHTGZ9pTBI3SsJnHQA8KA"><path class="cls-6" d="m1127.4,128.6c45.07,0,81.64,36.57,81.64,81.64s-36.57,81.64-81.64,81.64-81.64-36.57-81.64-81.64,36.57-81.64,81.64-81.64Z"/></g><g id="nyYYuTjAu-bm43d7gdh2u"><path class="cls-6" d="m3173.04,113.6c45.07,0,81.64,36.57,81.64,81.64s-36.57,81.64-81.64,81.64-81.64-36.57-81.64-81.64,36.57-81.64,81.64-81.64Z"/></g><g id="hPTcxfxU6grSgSnw4Lib2"><path class="cls-6" d="m2433.35,633.09c45.07,0,81.64,36.57,81.64,81.64s-36.57,81.64-81.64,81.64-81.64-36.57-81.64-81.64,36.57-81.64,81.64-81.64Z"/></g><path class="cls-4" d="m3255,210v-30h565.48c-14.02-100.02-99.91-177-203.8-177H223.31C113.27,3,23.41,89.36,17.78,198h1036.22v30H17.5s0,427.19,0,427.19c0,113.67,92.15,205.81,205.81,205.81h3130.69v-129h-848v-30h848s0,0,0,0h30v30h0v129h232.69c113.67,0,205.81-92.15,205.81-205.81V210h-567.5Z"/><rect class="cls-3" x="2506" y="702" width="848" height="30"/><path class="cls-3" d="m3255,210h567.5s0-1.19,0-1.19c0-9.78-.7-19.4-2.02-28.81h-565.48s0,30,0,30Z"/><path class="cls-3" d="m1054,198H17.78c-.19,3.58-.28,7.19-.28,10.81v19.19h1036.5s0-30,0-30Z"/><polygon class="cls-3" points="3384 702 3384 702 3354 702 3354 702 3354 732 3354 861 3384 861 3384 732 3384 702"/></svg>