<?xml version="1.0" encoding="UTF-8"?>
<svg id="com-green" xmlns="http://www.w3.org/2000/svg" xmlns:xlink="http://www.w3.org/1999/xlink" viewBox="0 0 10000 3840">
  <defs>
    <style>
      .cls-1, .cls-2, .cls-3, .cls-4, .cls-5 {
        stroke-width: 0px;
      }

      .cls-1, .cls-6 {
        fill: #acffe3;
      }

      .cls-7, .cls-8 {
        isolation: isolate;
      }

      .cls-3, .cls-9 {
        fill: none;
      }

      .cls-10 {
        filter: url(#drop-shadow-1);
      }

      .cls-9 {
        stroke: #000;
        stroke-miterlimit: 16.57;
        stroke-width: 48px;
      }

      .cls-4 {
        fill: #abbe40;
      }

      .cls-8 {
        font-family: Goldman-Regular, Goldman;
        font-size: 526.87px;
      }

      .cls-6 {
        stroke: #acffe3;
        stroke-miterlimit: 10;
      }

      .cls-5 {
        fill: rgba(0, 18, 25, .76);
      }
    </style>
    <filter id="drop-shadow-1" filterUnits="userSpaceOnUse">
      <feOffset dx="25" dy="25"/>
      <feGaussianBlur result="blur" stdDeviation="0"/>
      <feFlood flood-color="#797777" flood-opacity="1"/>
      <feComposite in2="blur" operator="in"/>
      <feComposite in="SourceGraphic"/>
    </filter>
  </defs>
  <g id="background">
    <circle class="cls-4" cx="1931.5" cy="1920" r="1910"/>
  </g>
  <g id="logo">
    <g id="home">
      <g id="shadow">
        <path class="cls-3" d="m1931.5,10C876.64,10,21.5,865.14,21.5,1920c0,226.93,39.58,444.61,112.2,646.52L1943.5,878l1031,962-802,748,575,348-949.33,889.41c44.05,3.04,88.51,4.59,133.33,4.59,1054.86,0,1910-855.14,1910-1910S2986.36,10,1931.5,10Z"/>
        <path class="cls-5" d="m2645.5,2147l329-307-1031-962L133.7,2566.52c250.62,696.8,894.83,1205.82,1664.47,1258.89l949.33-889.41-102-789Z"/>
      </g>
      <g>
        <ellipse class="cls-1" cx="2505.85" cy="2128.65" rx="79.85" ry="80.15"/>
        <ellipse class="cls-1" cx="2112.85" cy="2569.65" rx="79.85" ry="80.15"/>
        <ellipse class="cls-1" cx="1433.85" cy="2061.65" rx="79.85" ry="80.15"/>
        <path class="cls-1" d="m1937.71,1127.21l-472.22,422.79-.26,377.19c60.64,14.32,105.77,68.8,105.77,133.81,0,75.94-61.56,137.5-137.5,137.5s-137.5-61.56-137.5-137.5c0-63.49,43.04-116.92,101.52-132.73l.22-317.61-259.24,232.1v1093.25h413v-485h.17l-.09-.07,163.93-217.54v-273.39c-58.99-15.48-102.5-69.16-102.5-133,0-75.94,61.56-137.5,137.5-137.5s137.5,61.56,137.5,137.5c0,63.84-43.51,117.52-102.5,133v297h-.38l-163.62,217.12v461.88h456v-234c-58.99-15.48-102.5-69.16-102.5-133,0-75.94,61.56-137.5,137.5-137.5s137.5,61.56,137.5,137.5c0,63.84-43.51,117.52-102.5,133v234h323v-675c-58.99-15.48-102.5-69.16-102.5-133,0-75.94,61.56-137.5,137.5-137.5s137.5,61.56,137.5,137.5c0,63.84-43.51,117.52-102.5,133v675h207v-1093.25l-809.79-715.54Z"/>
        <ellipse class="cls-1" cx="1750.85" cy="1827.65" rx="79.85" ry="80.15"/>
      </g>
      <g id="roof">
        <path class="cls-6" d="m1051.01,1840.5h-140.89l1032.88-963,1032.46,963h-141.94l-890.38-811.8-892.13,811.8Z"/>
      </g>
    </g>
  </g>
  <g>
    <g id="Ovj1Bk3Rkj9D8jkbx2zeq">
      <rect class="cls-4" x="3903.5" y="1262.13" width="6075" height="1369.87" rx="315.12" ry="315.12"/>
    </g>
    <g id="SKt06yS5S-EHQ1oLOTpuP" class="cls-10">
      <g class="cls-7">
        <text class="cls-8" transform="translate(4141.25 2126.35)"><tspan x="0" y="0">Smart Home System </tspan></text>
      </g>
      <g class="cls-7">
        <text class="cls-8" transform="translate(4141.25 2126.35)"><tspan x="0" y="0">Smart Home System </tspan></text>
      </g>
    </g>
    <g id="lHTGZ9pTBI3SsJnHQA8KA">
      <path class="cls-9" d="m5675.54,1462.66c71.95,0,130.35,58.39,130.35,130.35s-58.39,130.35-130.35,130.35-130.35-58.39-130.35-130.35,58.39-130.35,130.35-130.35Z"/>
    </g>
    <g id="nyYYuTjAu-bm43d7gdh2u">
      <path class="cls-9" d="m8941.58,1438.71c71.95,0,130.35,58.39,130.35,130.35s-58.39,130.35-130.35,130.35-130.35-58.39-130.35-130.35,58.39-130.35,130.35-130.35Z"/>
    </g>
    <g id="hPTcxfxU6grSgSnw4Lib2">
      <path class="cls-9" d="m7760.61,2268.12c71.95,0,130.35,58.39,130.35,130.35s-58.39,130.35-130.35,130.35-130.35-58.39-130.35-130.35,58.39-130.35,130.35-130.35Z"/>
    </g>
    <g>
      <path class="cls-3" d="m9072.44,1592.62v-47.9h902.84c-22.38-159.7-159.51-282.6-325.38-282.6h-5417.8c-175.69,0-319.17,137.88-328.15,311.33h1654.41v47.9h-1654.86s0,682.04,0,682.04c0,181.48,147.12,328.6,328.6,328.6h4998.4v-205.96h-1353.9v-47.9h1353.9s0,0,0,0h47.9v47.9h0v205.96h371.5c181.48,0,328.6-147.12,328.6-328.6v-710.78h-906.06Z"/>
      <rect class="cls-2" x="7876.6" y="2378.14" width="1353.9" height="47.9"/>
      <path class="cls-2" d="m9072.44,1592.62h906.06s0-1.89,0-1.89c0-15.62-1.11-30.97-3.22-46h-902.84s0,47.9,0,47.9Z"/>
      <path class="cls-2" d="m5558.36,1573.47h-1654.41c-.3,5.72-.45,11.47-.45,17.27v30.63h1654.86s0-47.9,0-47.9Z"/>
      <polygon class="cls-2" points="9278.4 2378.14 9278.4 2378.14 9230.5 2378.14 9230.5 2378.14 9230.5 2426.04 9230.5 2632 9278.4 2632 9278.4 2426.04 9278.4 2378.14"/>
    </g>
  </g>
</svg>